<?xml version="1.0" encoding="utf-8"?>
<!-- Generator: Adobe Illustrator 24.1.3, SVG Export Plug-In . SVG Version: 6.00 Build 0)  -->
<svg version="1.1" id="group" xmlns="http://www.w3.org/2000/svg" xmlns:xlink="http://www.w3.org/1999/xlink" x="0px" y="0px"
	 viewBox="0 0 448.4 478.6" style="enable-background:new 0 0 448.4 478.6;" xml:space="preserve">
<style type="text/css">
	.st0{fill:#CCD8FF;}
	.st1{fill:#AEBEFF;}
	.st2{fill:#8D9EFF;}
	.st3{fill:#697FED;}
	.st4{fill:#4036CC;}
	.st5{fill:none;stroke:#FFFFFF;stroke-width:8;stroke-miterlimit:10;}
	.st6{fill:#FFFFFF;}
</style>
<g>
	<g>
		<path class="st0" d="M201.5,1.4h40.7c90.2,0,163.3,86.9,163.3,194v89.3c0,107.1-73.1,194-163.3,194h-40.7
			c-90.2,0-163.3-86.9-163.3-194v-89.3C38.3,88.2,111.3,1.4,201.5,1.4z"/>
	</g>
</g>
<g>
	<g>
		<path class="st1" d="M203.4,18.1h37.9c84,0,152.1,80.9,152.1,180.8v83.2c0,99.8-68.1,180.8-152.1,180.8h-37.9
			c-84,0-152.1-80.9-152.1-180.8v-83.2C51.3,99.1,119.3,18.1,203.4,18.1z"/>
	</g>
</g>
<g>
	<g>
		<path class="st2" d="M205.6,37.9h34.6c76.8,0,139,74,139,165.2v76c0,91.2-62.2,165.2-139,165.2h-34.6c-76.8,0-139-74-139-165.2
			v-76C66.6,111.8,128.8,37.9,205.6,37.9z"/>
	</g>
</g>
<g>
	<g>
		<path class="st3" d="M207.7,57h31.5c69.8,0,126.3,67.2,126.3,150.1v69.1c0,82.9-56.5,150.1-126.3,150.1h-31.5
			c-69.8,0-126.3-67.2-126.3-150.1v-69.1C81.4,124.2,137.9,57,207.7,57z"/>
	</g>
</g>
<g>
	<g>
		<path class="st4" d="M207.3,473.6c-58,0-109.8-12.4-154-36.8c-33.5-18.5-32.4-23.1-32.4-35c0-3,1-7.3,6-11.3
			c3.6-2.9,8.1-4.5,12.7-4.4c6,0,12.5,3.2,19.8,9.9c19,16.8,26.6,21.5,54.2,31.7C141.4,437.9,169,443,196,443
			c27.1,0,40.8-5.9,40.8-17.5c0-8.2-5-17.9-14.8-28.8c-10.5-11.7-36.2-35.4-76.3-70.4c-50.9-44.6-85.4-78.2-102.5-99.9
			c-23.1-29.3-34.7-57.7-34.7-84.6c0-40.6,22.4-74.2,66.7-99.7C117.8,17.5,171,5,233.2,5c43.5,0,84,7.3,120.5,21.6
			c12.8,5,25,11.6,36.2,19.6c11.4,8.4,16.7,15.4,16.7,22.1c0,2.7-1.1,6.8-6.2,10.5c-3.3,2.5-7.2,3.9-11.4,4
			c-5.7,0-12.9-3.4-22.6-10.8c-13.6-10.4-31.7-19.1-54-26c-22.4-6.9-44.2-10.4-64.7-10.4c-12.1,0-22.1,2.1-29.5,6.2
			c-6.6,3.6-9.8,8-9.8,13.2c0,7.5,4.8,17.1,14.1,28.6c9.9,12.2,27.1,28.7,51,49.1c77.8,67,124.1,111,141.8,134.5
			c18.6,25.1,28,49.8,28,73.4c0,20.2-6.8,39.6-20.2,57.5c-13.2,17.7-31.8,32.4-55.1,43.7C324.3,462.9,270.2,473.6,207.3,473.6z"/>
		<path class="st5" d="M207.3,473.6c-58,0-109.8-12.4-154-36.8c-33.5-18.5-32.4-23.1-32.4-35c0-3,1-7.3,6-11.3
			c3.6-2.9,8.1-4.5,12.7-4.4c6,0,12.5,3.2,19.8,9.9c19,16.8,26.6,21.5,54.2,31.7C141.4,437.9,169,443,196,443
			c27.1,0,40.8-5.9,40.8-17.5c0-8.2-5-17.9-14.8-28.8c-10.5-11.7-36.2-35.4-76.3-70.4c-50.9-44.6-85.4-78.2-102.5-99.9
			c-23.1-29.3-34.7-57.7-34.7-84.6c0-40.6,22.4-74.2,66.7-99.7C117.8,17.5,171,5,233.2,5c43.5,0,84,7.3,120.5,21.6
			c12.8,5,25,11.6,36.2,19.6c11.4,8.4,16.7,15.4,16.7,22.1c0,2.7-1.1,6.8-6.2,10.5c-3.3,2.5-7.2,3.9-11.4,4
			c-5.7,0-12.9-3.4-22.6-10.8c-13.6-10.4-31.7-19.1-54-26c-22.4-6.9-44.2-10.4-64.7-10.4c-12.1,0-22.1,2.1-29.5,6.2
			c-6.6,3.6-9.8,8-9.8,13.2c0,7.5,4.8,17.1,14.1,28.6c9.9,12.2,27.1,28.7,51,49.1c77.8,67,124.1,111,141.8,134.5
			c18.6,25.1,28,49.8,28,73.4c0,20.2-6.8,39.6-20.2,57.5c-13.2,17.7-31.8,32.4-55.1,43.7C324.3,462.9,270.2,473.6,207.3,473.6z"/>
	</g>
</g>
<path class="st6" d="M233.2,10c43.1,0,82.6,7.1,118.6,21.2c12.4,4.9,24.2,11.3,35,19c9.8,7.2,14.7,13.2,14.7,18.1
	c0,2.3-1.4,4.5-4.1,6.5c-2.4,1.9-5.4,2.9-8.4,3c-4.4,0-11-3.3-19.6-9.8c-14.1-10.8-32.6-19.7-55.6-26.8s-45-10.6-66.2-10.6
	c-13.1,0-23.7,2.3-31.9,6.8S203.4,47.8,203.4,55c0,8.7,5.1,19.2,15.2,31.7c10.2,12.5,27.4,29.1,51.7,49.8
	c76.8,66.1,123.8,110.7,141,133.7c18,24.3,27,47.8,27,70.4c0,19.2-6.4,37.4-19.2,54.5c-12.8,17.1-30.5,31.2-53.3,42.2
	c-43.3,20.9-96.2,31.4-158.6,31.4c-57.4,0-107.9-12-151.5-36.1c-30.4-17-29.7-21.2-29.7-30.7c0-2.7,1.4-5.2,4.1-7.4
	c2.7-2.2,6.1-3.4,9.6-3.3c4.7,0,10.2,2.9,16.4,8.6c19.6,17.3,27.5,22.2,55.8,32.7s56.3,15.7,84,15.7c30.5,0,45.8-7.5,45.8-22.5
	c0-9.5-5.3-20.2-16-32.2c-10.7-11.9-36.3-35.6-76.7-70.8c-50.9-44.6-84.9-77.6-101.8-99.2C24.7,195,13.5,167.8,13.5,142
	c0-38.9,21.4-70.7,64.2-95.4C119.8,22.2,171.6,10,233.2,10 M233.2,0C170.1,0,116.1,12.7,72.7,37.8C26.8,64.3,3.5,99.3,3.5,141.9
	c0,28,12,57.5,35.8,87.6c17.5,22.3,51.2,55.1,103.1,100.5c40,34.9,65.5,58.4,75.9,70c8.8,9.9,13.5,18.7,13.5,25.5
	c0,10.9-22.4,12.5-35.8,12.5c-26.4,0-53.4-5.1-80.5-15.1c-27-10-34.1-14.3-52.6-30.7c-8.2-7.5-15.8-11.1-23.1-11.1
	c-5.8-0.1-11.4,1.9-15.9,5.6c-6.5,5.2-7.8,11.2-7.8,15.2c0,14.1-0.8,19.6,35,39.4c44.9,24.8,97.5,37.4,156.4,37.4
	c63.6,0,118.4-10.9,162.9-32.4c24.1-11.6,43.2-26.8,56.9-45.2c14.1-18.8,21.2-39.2,21.2-60.5c0-24.7-9.8-50.4-29-76.3
	C401.6,240.4,355,196.2,277,128.9l0,0l0,0c-23.7-20.2-40.7-36.5-50.4-48.5c-10.7-13.2-13-21.1-13-25.4c0-1.5,0-4.9,7.2-8.8
	c6.7-3.7,15.8-5.6,27.1-5.6c20,0,41.3,3.4,63.2,10.2c21.7,6.7,39.4,15.2,52.5,25.2c10.7,8.1,18.8,11.9,25.7,11.9
	c5.2-0.1,10.2-1.8,14.3-4.9c6.8-5,8.2-10.7,8.2-14.6c0-8.4-6-16.7-18.8-26.1c-11.5-8.2-24-15-37.2-20.2l0,0l0,0
	C318.5,7.4,277.3,0,233.2,0z"/>
</svg>
